<svg width="124" height="42" viewBox="0 0 124 42" fill="none" xmlns="http://www.w3.org/2000/svg">
<mask id="path-1-outside-1_827_32625" maskUnits="userSpaceOnUse" x="-0.671154" y="-0.67116" width="125" height="42" fill="black">
<rect fill="white" x="-0.671154" y="-0.67116" width="125" height="42"/>
<path d="M34.2308 0.3556C35.5557 0.275387 37.0586 0.365906 38.3279 0.758291C39.2709 1.04977 40.1946 1.56778 40.656 2.47903C41.0118 3.18173 40.9821 3.96107 40.7336 4.69337C39.3635 8.73153 29.3538 14.8606 25.5043 16.7984C28.3508 16.4892 31.2847 16.3764 34.0885 17.057C38.5767 18.1465 41.68 20.4073 40.4803 25.396C41.8611 25.5262 42.7092 25.6456 44.0305 26.1493C44.8655 24.8624 45.9616 23.5948 47.4464 23.0582C48.8401 22.5634 49.5801 23.787 48.7651 24.9358C47.7803 26.3236 46.0142 27.1997 44.3942 27.5345C44.2308 28.1987 44.0578 29.4464 44.9127 29.6445C47.6128 30.2702 51.075 27.6561 53.0063 25.9819C54.0325 24.889 54.4599 23.7534 55.9255 23.0988C57.2946 22.4873 58.1906 23.2504 57.39 24.6465C56.6633 25.914 54.9576 26.9884 53.5162 27.3656C53.4201 27.9462 53.3083 29.1822 54.0622 29.3315C57.0535 29.9238 60.521 26.9827 62.6631 25.1772C63.1405 24.7749 63.3792 23.6467 64.0504 23.3876C64.241 23.3179 64.3581 23.3622 64.5092 23.4349C64.6897 23.8302 64.3627 24.2887 64.1286 24.6135C63.7039 25.2026 61.8393 28.1668 62.6592 28.6963C64.1914 28.6753 68.185 23.0358 68.9282 22.8038C69.2258 22.83 69.1119 22.788 69.3475 22.9817C69.4731 23.7016 66.494 27.732 67.7425 28.3552C68.9701 28.3828 72.329 25.6595 73.0458 24.6734C73.9076 23.4888 74.8369 21.1184 75.5917 19.7022C77.4052 16.298 84.3221 4.09747 87.3601 2.67216C87.5865 2.56606 87.8662 2.49112 88.1065 2.59939C88.2878 2.68146 88.4265 2.84902 88.4893 3.03603C89.4015 5.74265 79.9589 18.0029 77.8826 20.5208C76.9495 21.6518 74.5145 24.0759 73.9433 25.1445C73.1993 26.5376 71.2044 31.2701 71.6795 32.6831C71.7376 32.8582 71.8523 32.9673 72.0189 33.0441C73.6147 33.781 79.7698 27.5562 81.0284 26.2527C81.708 25.5489 82.3079 24.7379 83.0403 24.0915C83.6378 23.5641 84.3159 23.0932 85.0592 22.797C85.6505 22.5616 86.4317 22.3785 87.0339 22.6662C87.347 22.8158 87.6461 23.1175 87.7593 23.4498C87.8352 23.6729 87.8004 23.8282 87.6919 24.0289C87.0067 24.4807 86.9308 23.5358 86.2837 23.4005C84.6182 23.0517 80.4611 27.8606 81.3539 28.981C82.6822 29.2242 86.0264 24.8583 86.5069 24.6904C86.8169 24.704 86.7277 24.6551 86.9292 24.8261C87.016 25.1728 86.8928 25.4515 86.7432 25.7782C86.1752 27.0175 85.0491 29.4267 87.6585 28.4607C87.8794 28.3787 88.1352 28.2269 88.3483 28.1013C90.8686 26.6169 93.0029 24.5838 94.7289 22.2311C95.3032 21.4467 95.7348 20.4215 96.1657 19.5467L98.2257 15.371C100.071 11.7337 102.052 8.16709 104.166 4.67896C104.845 3.57039 105.563 2.43764 106.369 1.41386C106.67 1.03249 106.984 0.665755 107.501 0.72822C107.602 0.815563 107.675 0.856097 107.727 0.98529C108.494 2.90831 101.305 14.1951 99.9578 16.2057C98.7527 18.0048 97.3096 19.7127 96.2091 21.5683C95.6907 22.4428 95.297 23.4046 94.8723 24.328L92.834 28.7413L92.8673 28.7023C94.0763 27.2862 98.9805 21.6621 101.019 23.1256C102.687 24.3233 98.29 29.7521 103.697 28.7737C106.557 28.2069 109.411 27.1582 112.189 26.3353C114.235 25.7291 121.848 23.5871 123.353 24.9231C123.449 25.2091 123.446 25.0871 123.388 25.3854C122.934 25.8067 122.486 25.3356 121.914 25.3519C117.388 25.4807 112.963 27.082 108.67 28.386C106.748 28.9431 104.826 29.7016 102.81 29.8108C100.861 29.9163 99.9989 29.1455 99.9423 27.2337C100.014 26.5482 100.675 24.3436 100.331 23.8993C99.8687 23.7197 98.9372 24.2417 98.5605 24.4987C95.6449 26.4865 93.2657 29.3931 91.4235 32.3744C91.229 32.6896 90.9678 33.0366 90.5911 33.1105C89.8564 32.7115 90.9314 30.7732 91.1902 30.1681C91.942 28.4391 92.7123 26.7185 93.5021 25.0068C93.2052 25.3206 92.896 25.622 92.5744 25.9105C91.1344 27.227 88.487 29.5394 86.4061 29.5649C85.1212 29.5807 85.0801 28.2167 85.1777 27.2597C84.5291 27.9394 83.8579 28.564 83.1085 29.1305C81.6708 30.2183 79.8302 30.4966 80.4208 27.9862C78.8917 29.4553 73.9743 34.6462 71.6276 33.9088C69.4506 33.225 71.6229 28.2014 72.2367 26.5936C71.0975 27.5251 68.8887 29.4551 67.3007 29.1217C66.1157 28.8729 66.6102 27.0773 66.876 26.2678C66.0538 27.1368 63.6164 29.9166 62.1873 29.5663C61.1294 29.3069 61.5456 27.7088 61.8486 26.9264C60.0126 28.4724 56.8424 30.4623 54.3831 30.3121C52.6956 30.209 52.3763 28.9119 52.5206 27.5065C50.5669 28.8552 47.4217 31.19 44.8485 30.6189C42.9131 30.1895 43.1543 28.3667 43.6144 26.9061C42.329 26.4004 41.5502 26.3508 40.1892 26.2723C38.078 30.8369 32.9644 34.3001 28.4449 36.4673C22.8473 39.1517 13.4664 42.2572 7.24889 40.4615C6.54333 40.2631 5.30968 39.5268 5.07345 38.7728C3.85406 34.8816 11.533 31.7362 13.9826 30.673C16.4181 24.8029 19.2235 19.3805 22.234 13.8004L24.1826 10.2022C24.5269 9.56977 25.328 7.77866 26.0468 7.65931C26.2831 7.76502 26.1838 7.68612 26.3307 7.93079C26.4164 8.63 24.9199 10.9082 24.5342 11.6013C21.1676 17.6503 17.9291 23.8053 15.1959 30.1687C22.2494 27.395 31.8932 25.2954 39.4539 25.3516C39.7953 24.1164 39.9866 22.9442 39.4521 21.7245C37.7509 17.8432 31.0251 17.379 27.3501 17.7111C26.4953 17.7883 22.6309 18.5658 22.1267 18.3292C21.9375 18.2405 21.9099 18.1704 21.8541 17.9774C21.9402 17.6428 22.2577 17.3256 22.5536 17.1673C27.2888 14.6346 32.0297 11.9351 36.1865 8.50809C37.4936 7.43053 39.5948 5.5337 39.8203 3.76274C39.8736 3.34362 39.6548 2.82391 39.3659 2.53987C38.5977 1.64063 36.1737 1.35822 34.9766 1.40945C24.4787 1.85856 11.742 8.17747 4.16825 15.3287C3.16718 16.2739 1.36181 18.396 1.30508 19.788C1.29214 20.1074 1.70521 20.9099 1.70576 21.4021C1.55099 21.5957 1.64941 21.5217 1.37506 21.5916C0.777303 21.4317 0.379183 20.6548 0.33679 20.0866C0.22085 18.5326 1.39606 16.7131 2.4169 15.6321C8.52385 9.16506 18.2201 4.05825 26.6988 1.68271C29.1541 0.969168 31.6795 0.524241 34.2308 0.3556ZM6.16241 38.6805C7.40172 39.8802 9.77377 40.0841 11.4398 40.0259C20.2058 39.7214 34.7699 34.5069 39.056 26.2686C38.2418 26.2564 37.3505 26.2538 36.5383 26.3281C29.4151 26.8205 21.2978 28.7974 14.6779 31.4497C14.2772 32.4823 14.0068 33.4131 13.7585 34.4866C13.725 34.6316 13.5911 34.6952 13.4778 34.7689C13.179 34.7894 13.2845 34.8252 13.0678 34.6641C12.7919 34.0221 13.3022 32.6067 13.5258 31.9423C11.7415 32.7095 4.60783 36.0254 6.16241 38.6805ZM75.8451 21.5833C79.6721 17.0556 83.2829 12.2626 86.1674 7.06271C86.6681 6.16053 87.4245 4.69546 87.6136 3.70106L87.4865 3.6327C84.3617 6.00351 77.6525 17.6362 75.7343 21.533L75.7715 21.6083L75.8451 21.5833ZM99.4115 15.3623C100.274 14.2214 106.197 4.49629 106.057 3.4863C105.212 4.79459 99.3146 14.6877 99.4115 15.3623ZM45.3662 26.3956C45.9802 26.114 48.4759 24.7536 48.0893 23.9166C47.9096 23.8622 47.9191 23.8625 47.7318 23.8697C46.9833 24.2407 45.1687 25.592 45.067 26.4068C45.2465 26.4518 45.1729 26.4446 45.3662 26.3956ZM54.2883 26.1974C54.9358 25.8689 56.7465 24.7436 56.7335 23.9198L56.6619 23.8121L56.448 23.7759C55.2982 24.4264 54.7791 25.033 54.1073 26.1834L54.1506 26.247L54.2883 26.1974Z"/>
</mask>
<path d="M34.2308 0.3556C35.5557 0.275387 37.0586 0.365906 38.3279 0.758291C39.2709 1.04977 40.1946 1.56778 40.656 2.47903C41.0118 3.18173 40.9821 3.96107 40.7336 4.69337C39.3635 8.73153 29.3538 14.8606 25.5043 16.7984C28.3508 16.4892 31.2847 16.3764 34.0885 17.057C38.5767 18.1465 41.68 20.4073 40.4803 25.396C41.8611 25.5262 42.7092 25.6456 44.0305 26.1493C44.8655 24.8624 45.9616 23.5948 47.4464 23.0582C48.8401 22.5634 49.5801 23.787 48.7651 24.9358C47.7803 26.3236 46.0142 27.1997 44.3942 27.5345C44.2308 28.1987 44.0578 29.4464 44.9127 29.6445C47.6128 30.2702 51.075 27.6561 53.0063 25.9819C54.0325 24.889 54.4599 23.7534 55.9255 23.0988C57.2946 22.4873 58.1906 23.2504 57.39 24.6465C56.6633 25.914 54.9576 26.9884 53.5162 27.3656C53.4201 27.9462 53.3083 29.1822 54.0622 29.3315C57.0535 29.9238 60.521 26.9827 62.6631 25.1772C63.1405 24.7749 63.3792 23.6467 64.0504 23.3876C64.241 23.3179 64.3581 23.3622 64.5092 23.4349C64.6897 23.8302 64.3627 24.2887 64.1286 24.6135C63.7039 25.2026 61.8393 28.1668 62.6592 28.6963C64.1914 28.6753 68.185 23.0358 68.9282 22.8038C69.2258 22.83 69.1119 22.788 69.3475 22.9817C69.4731 23.7016 66.494 27.732 67.7425 28.3552C68.9701 28.3828 72.329 25.6595 73.0458 24.6734C73.9076 23.4888 74.8369 21.1184 75.5917 19.7022C77.4052 16.298 84.3221 4.09747 87.3601 2.67216C87.5865 2.56606 87.8662 2.49112 88.1065 2.59939C88.2878 2.68146 88.4265 2.84902 88.4893 3.03603C89.4015 5.74265 79.9589 18.0029 77.8826 20.5208C76.9495 21.6518 74.5145 24.0759 73.9433 25.1445C73.1993 26.5376 71.2044 31.2701 71.6795 32.6831C71.7376 32.8582 71.8523 32.9673 72.0189 33.0441C73.6147 33.781 79.7698 27.5562 81.0284 26.2527C81.708 25.5489 82.3079 24.7379 83.0403 24.0915C83.6378 23.5641 84.3159 23.0932 85.0592 22.797C85.6505 22.5616 86.4317 22.3785 87.0339 22.6662C87.347 22.8158 87.6461 23.1175 87.7593 23.4498C87.8352 23.6729 87.8004 23.8282 87.6919 24.0289C87.0067 24.4807 86.9308 23.5358 86.2837 23.4005C84.6182 23.0517 80.4611 27.8606 81.3539 28.981C82.6822 29.2242 86.0264 24.8583 86.5069 24.6904C86.8169 24.704 86.7277 24.6551 86.9292 24.8261C87.016 25.1728 86.8928 25.4515 86.7432 25.7782C86.1752 27.0175 85.0491 29.4267 87.6585 28.4607C87.8794 28.3787 88.1352 28.2269 88.3483 28.1013C90.8686 26.6169 93.0029 24.5838 94.7289 22.2311C95.3032 21.4467 95.7348 20.4215 96.1657 19.5467L98.2257 15.371C100.071 11.7337 102.052 8.16709 104.166 4.67896C104.845 3.57039 105.563 2.43764 106.369 1.41386C106.67 1.03249 106.984 0.665755 107.501 0.72822C107.602 0.815563 107.675 0.856097 107.727 0.98529C108.494 2.90831 101.305 14.1951 99.9578 16.2057C98.7527 18.0048 97.3096 19.7127 96.2091 21.5683C95.6907 22.4428 95.297 23.4046 94.8723 24.328L92.834 28.7413L92.8673 28.7023C94.0763 27.2862 98.9805 21.6621 101.019 23.1256C102.687 24.3233 98.29 29.7521 103.697 28.7737C106.557 28.2069 109.411 27.1582 112.189 26.3353C114.235 25.7291 121.848 23.5871 123.353 24.9231C123.449 25.2091 123.446 25.0871 123.388 25.3854C122.934 25.8067 122.486 25.3356 121.914 25.3519C117.388 25.4807 112.963 27.082 108.67 28.386C106.748 28.9431 104.826 29.7016 102.81 29.8108C100.861 29.9163 99.9989 29.1455 99.9423 27.2337C100.014 26.5482 100.675 24.3436 100.331 23.8993C99.8687 23.7197 98.9372 24.2417 98.5605 24.4987C95.6449 26.4865 93.2657 29.3931 91.4235 32.3744C91.229 32.6896 90.9678 33.0366 90.5911 33.1105C89.8564 32.7115 90.9314 30.7732 91.1902 30.1681C91.942 28.4391 92.7123 26.7185 93.5021 25.0068C93.2052 25.3206 92.896 25.622 92.5744 25.9105C91.1344 27.227 88.487 29.5394 86.4061 29.5649C85.1212 29.5807 85.0801 28.2167 85.1777 27.2597C84.5291 27.9394 83.8579 28.564 83.1085 29.1305C81.6708 30.2183 79.8302 30.4966 80.4208 27.9862C78.8917 29.4553 73.9743 34.6462 71.6276 33.9088C69.4506 33.225 71.6229 28.2014 72.2367 26.5936C71.0975 27.5251 68.8887 29.4551 67.3007 29.1217C66.1157 28.8729 66.6102 27.0773 66.876 26.2678C66.0538 27.1368 63.6164 29.9166 62.1873 29.5663C61.1294 29.3069 61.5456 27.7088 61.8486 26.9264C60.0126 28.4724 56.8424 30.4623 54.3831 30.3121C52.6956 30.209 52.3763 28.9119 52.5206 27.5065C50.5669 28.8552 47.4217 31.19 44.8485 30.6189C42.9131 30.1895 43.1543 28.3667 43.6144 26.9061C42.329 26.4004 41.5502 26.3508 40.1892 26.2723C38.078 30.8369 32.9644 34.3001 28.4449 36.4673C22.8473 39.1517 13.4664 42.2572 7.24889 40.4615C6.54333 40.2631 5.30968 39.5268 5.07345 38.7728C3.85406 34.8816 11.533 31.7362 13.9826 30.673C16.4181 24.8029 19.2235 19.3805 22.234 13.8004L24.1826 10.2022C24.5269 9.56977 25.328 7.77866 26.0468 7.65931C26.2831 7.76502 26.1838 7.68612 26.3307 7.93079C26.4164 8.63 24.9199 10.9082 24.5342 11.6013C21.1676 17.6503 17.9291 23.8053 15.1959 30.1687C22.2494 27.395 31.8932 25.2954 39.4539 25.3516C39.7953 24.1164 39.9866 22.9442 39.4521 21.7245C37.7509 17.8432 31.0251 17.379 27.3501 17.7111C26.4953 17.7883 22.6309 18.5658 22.1267 18.3292C21.9375 18.2405 21.9099 18.1704 21.8541 17.9774C21.9402 17.6428 22.2577 17.3256 22.5536 17.1673C27.2888 14.6346 32.0297 11.9351 36.1865 8.50809C37.4936 7.43053 39.5948 5.5337 39.8203 3.76274C39.8736 3.34362 39.6548 2.82391 39.3659 2.53987C38.5977 1.64063 36.1737 1.35822 34.9766 1.40945C24.4787 1.85856 11.742 8.17747 4.16825 15.3287C3.16718 16.2739 1.36181 18.396 1.30508 19.788C1.29214 20.1074 1.70521 20.9099 1.70576 21.4021C1.55099 21.5957 1.64941 21.5217 1.37506 21.5916C0.777303 21.4317 0.379183 20.6548 0.33679 20.0866C0.22085 18.5326 1.39606 16.7131 2.4169 15.6321C8.52385 9.16506 18.2201 4.05825 26.6988 1.68271C29.1541 0.969168 31.6795 0.524241 34.2308 0.3556ZM6.16241 38.6805C7.40172 39.8802 9.77377 40.0841 11.4398 40.0259C20.2058 39.7214 34.7699 34.5069 39.056 26.2686C38.2418 26.2564 37.3505 26.2538 36.5383 26.3281C29.4151 26.8205 21.2978 28.7974 14.6779 31.4497C14.2772 32.4823 14.0068 33.4131 13.7585 34.4866C13.725 34.6316 13.5911 34.6952 13.4778 34.7689C13.179 34.7894 13.2845 34.8252 13.0678 34.6641C12.7919 34.0221 13.3022 32.6067 13.5258 31.9423C11.7415 32.7095 4.60783 36.0254 6.16241 38.6805ZM75.8451 21.5833C79.6721 17.0556 83.2829 12.2626 86.1674 7.06271C86.6681 6.16053 87.4245 4.69546 87.6136 3.70106L87.4865 3.6327C84.3617 6.00351 77.6525 17.6362 75.7343 21.533L75.7715 21.6083L75.8451 21.5833ZM99.4115 15.3623C100.274 14.2214 106.197 4.49629 106.057 3.4863C105.212 4.79459 99.3146 14.6877 99.4115 15.3623ZM45.3662 26.3956C45.9802 26.114 48.4759 24.7536 48.0893 23.9166C47.9096 23.8622 47.9191 23.8625 47.7318 23.8697C46.9833 24.2407 45.1687 25.592 45.067 26.4068C45.2465 26.4518 45.1729 26.4446 45.3662 26.3956ZM54.2883 26.1974C54.9358 25.8689 56.7465 24.7436 56.7335 23.9198L56.6619 23.8121L56.448 23.7759C55.2982 24.4264 54.7791 25.033 54.1073 26.1834L54.1506 26.247L54.2883 26.1974Z" fill="#066E61"/>
<path d="M34.2308 0.3556C35.5557 0.275387 37.0586 0.365906 38.3279 0.758291C39.2709 1.04977 40.1946 1.56778 40.656 2.47903C41.0118 3.18173 40.9821 3.96107 40.7336 4.69337C39.3635 8.73153 29.3538 14.8606 25.5043 16.7984C28.3508 16.4892 31.2847 16.3764 34.0885 17.057C38.5767 18.1465 41.68 20.4073 40.4803 25.396C41.8611 25.5262 42.7092 25.6456 44.0305 26.1493C44.8655 24.8624 45.9616 23.5948 47.4464 23.0582C48.8401 22.5634 49.5801 23.787 48.7651 24.9358C47.7803 26.3236 46.0142 27.1997 44.3942 27.5345C44.2308 28.1987 44.0578 29.4464 44.9127 29.6445C47.6128 30.2702 51.075 27.6561 53.0063 25.9819C54.0325 24.889 54.4599 23.7534 55.9255 23.0988C57.2946 22.4873 58.1906 23.2504 57.39 24.6465C56.6633 25.914 54.9576 26.9884 53.5162 27.3656C53.4201 27.9462 53.3083 29.1822 54.0622 29.3315C57.0535 29.9238 60.521 26.9827 62.6631 25.1772C63.1405 24.7749 63.3792 23.6467 64.0504 23.3876C64.241 23.3179 64.3581 23.3622 64.5092 23.4349C64.6897 23.8302 64.3627 24.2887 64.1286 24.6135C63.7039 25.2026 61.8393 28.1668 62.6592 28.6963C64.1914 28.6753 68.185 23.0358 68.9282 22.8038C69.2258 22.83 69.1119 22.788 69.3475 22.9817C69.4731 23.7016 66.494 27.732 67.7425 28.3552C68.9701 28.3828 72.329 25.6595 73.0458 24.6734C73.9076 23.4888 74.8369 21.1184 75.5917 19.7022C77.4052 16.298 84.3221 4.09747 87.3601 2.67216C87.5865 2.56606 87.8662 2.49112 88.1065 2.59939C88.2878 2.68146 88.4265 2.84902 88.4893 3.03603C89.4015 5.74265 79.9589 18.0029 77.8826 20.5208C76.9495 21.6518 74.5145 24.0759 73.9433 25.1445C73.1993 26.5376 71.2044 31.2701 71.6795 32.6831C71.7376 32.8582 71.8523 32.9673 72.0189 33.0441C73.6147 33.781 79.7698 27.5562 81.0284 26.2527C81.708 25.5489 82.3079 24.7379 83.0403 24.0915C83.6378 23.5641 84.3159 23.0932 85.0592 22.797C85.6505 22.5616 86.4317 22.3785 87.0339 22.6662C87.347 22.8158 87.6461 23.1175 87.7593 23.4498C87.8352 23.6729 87.8004 23.8282 87.6919 24.0289C87.0067 24.4807 86.9308 23.5358 86.2837 23.4005C84.6182 23.0517 80.4611 27.8606 81.3539 28.981C82.6822 29.2242 86.0264 24.8583 86.5069 24.6904C86.8169 24.704 86.7277 24.6551 86.9292 24.8261C87.016 25.1728 86.8928 25.4515 86.7432 25.7782C86.1752 27.0175 85.0491 29.4267 87.6585 28.4607C87.8794 28.3787 88.1352 28.2269 88.3483 28.1013C90.8686 26.6169 93.0029 24.5838 94.7289 22.2311C95.3032 21.4467 95.7348 20.4215 96.1657 19.5467L98.2257 15.371C100.071 11.7337 102.052 8.16709 104.166 4.67896C104.845 3.57039 105.563 2.43764 106.369 1.41386C106.67 1.03249 106.984 0.665755 107.501 0.72822C107.602 0.815563 107.675 0.856097 107.727 0.98529C108.494 2.90831 101.305 14.1951 99.9578 16.2057C98.7527 18.0048 97.3096 19.7127 96.2091 21.5683C95.6907 22.4428 95.297 23.4046 94.8723 24.328L92.834 28.7413L92.8673 28.7023C94.0763 27.2862 98.9805 21.6621 101.019 23.1256C102.687 24.3233 98.29 29.7521 103.697 28.7737C106.557 28.2069 109.411 27.1582 112.189 26.3353C114.235 25.7291 121.848 23.5871 123.353 24.9231C123.449 25.2091 123.446 25.0871 123.388 25.3854C122.934 25.8067 122.486 25.3356 121.914 25.3519C117.388 25.4807 112.963 27.082 108.67 28.386C106.748 28.9431 104.826 29.7016 102.81 29.8108C100.861 29.9163 99.9989 29.1455 99.9423 27.2337C100.014 26.5482 100.675 24.3436 100.331 23.8993C99.8687 23.7197 98.9372 24.2417 98.5605 24.4987C95.6449 26.4865 93.2657 29.3931 91.4235 32.3744C91.229 32.6896 90.9678 33.0366 90.5911 33.1105C89.8564 32.7115 90.9314 30.7732 91.1902 30.1681C91.942 28.4391 92.7123 26.7185 93.5021 25.0068C93.2052 25.3206 92.896 25.622 92.5744 25.9105C91.1344 27.227 88.487 29.5394 86.4061 29.5649C85.1212 29.5807 85.0801 28.2167 85.1777 27.2597C84.5291 27.9394 83.8579 28.564 83.1085 29.1305C81.6708 30.2183 79.8302 30.4966 80.4208 27.9862C78.8917 29.4553 73.9743 34.6462 71.6276 33.9088C69.4506 33.225 71.6229 28.2014 72.2367 26.5936C71.0975 27.5251 68.8887 29.4551 67.3007 29.1217C66.1157 28.8729 66.6102 27.0773 66.876 26.2678C66.0538 27.1368 63.6164 29.9166 62.1873 29.5663C61.1294 29.3069 61.5456 27.7088 61.8486 26.9264C60.0126 28.4724 56.8424 30.4623 54.3831 30.3121C52.6956 30.209 52.3763 28.9119 52.5206 27.5065C50.5669 28.8552 47.4217 31.19 44.8485 30.6189C42.9131 30.1895 43.1543 28.3667 43.6144 26.9061C42.329 26.4004 41.5502 26.3508 40.1892 26.2723C38.078 30.8369 32.9644 34.3001 28.4449 36.4673C22.8473 39.1517 13.4664 42.2572 7.24889 40.4615C6.54333 40.2631 5.30968 39.5268 5.07345 38.7728C3.85406 34.8816 11.533 31.7362 13.9826 30.673C16.4181 24.8029 19.2235 19.3805 22.234 13.8004L24.1826 10.2022C24.5269 9.56977 25.328 7.77866 26.0468 7.65931C26.2831 7.76502 26.1838 7.68612 26.3307 7.93079C26.4164 8.63 24.9199 10.9082 24.5342 11.6013C21.1676 17.6503 17.9291 23.8053 15.1959 30.1687C22.2494 27.395 31.8932 25.2954 39.4539 25.3516C39.7953 24.1164 39.9866 22.9442 39.4521 21.7245C37.7509 17.8432 31.0251 17.379 27.3501 17.7111C26.4953 17.7883 22.6309 18.5658 22.1267 18.3292C21.9375 18.2405 21.9099 18.1704 21.8541 17.9774C21.9402 17.6428 22.2577 17.3256 22.5536 17.1673C27.2888 14.6346 32.0297 11.9351 36.1865 8.50809C37.4936 7.43053 39.5948 5.5337 39.8203 3.76274C39.8736 3.34362 39.6548 2.82391 39.3659 2.53987C38.5977 1.64063 36.1737 1.35822 34.9766 1.40945C24.4787 1.85856 11.742 8.17747 4.16825 15.3287C3.16718 16.2739 1.36181 18.396 1.30508 19.788C1.29214 20.1074 1.70521 20.9099 1.70576 21.4021C1.55099 21.5957 1.64941 21.5217 1.37506 21.5916C0.777303 21.4317 0.379183 20.6548 0.33679 20.0866C0.22085 18.5326 1.39606 16.7131 2.4169 15.6321C8.52385 9.16506 18.2201 4.05825 26.6988 1.68271C29.1541 0.969168 31.6795 0.524241 34.2308 0.3556ZM6.16241 38.6805C7.40172 39.8802 9.77377 40.0841 11.4398 40.0259C20.2058 39.7214 34.7699 34.5069 39.056 26.2686C38.2418 26.2564 37.3505 26.2538 36.5383 26.3281C29.4151 26.8205 21.2978 28.7974 14.6779 31.4497C14.2772 32.4823 14.0068 33.4131 13.7585 34.4866C13.725 34.6316 13.5911 34.6952 13.4778 34.7689C13.179 34.7894 13.2845 34.8252 13.0678 34.6641C12.7919 34.0221 13.3022 32.6067 13.5258 31.9423C11.7415 32.7095 4.60783 36.0254 6.16241 38.6805ZM75.8451 21.5833C79.6721 17.0556 83.2829 12.2626 86.1674 7.06271C86.6681 6.16053 87.4245 4.69546 87.6136 3.70106L87.4865 3.6327C84.3617 6.00351 77.6525 17.6362 75.7343 21.533L75.7715 21.6083L75.8451 21.5833ZM99.4115 15.3623C100.274 14.2214 106.197 4.49629 106.057 3.4863C105.212 4.79459 99.3146 14.6877 99.4115 15.3623ZM45.3662 26.3956C45.9802 26.114 48.4759 24.7536 48.0893 23.9166C47.9096 23.8622 47.9191 23.8625 47.7318 23.8697C46.9833 24.2407 45.1687 25.592 45.067 26.4068C45.2465 26.4518 45.1729 26.4446 45.3662 26.3956ZM54.2883 26.1974C54.9358 25.8689 56.7465 24.7436 56.7335 23.9198L56.6619 23.8121L56.448 23.7759C55.2982 24.4264 54.7791 25.033 54.1073 26.1834L54.1506 26.247L54.2883 26.1974Z" stroke="#066E61" stroke-width="0.657683" mask="url(#path-1-outside-1_827_32625)"/>
</svg>
