<svg width="256" height="86" viewBox="0 0 256 86" fill="none" xmlns="http://www.w3.org/2000/svg">
<g opacity="0.3">
<mask id="path-1-outside-1_827_32868" maskUnits="userSpaceOnUse" x="-0.321655" y="-0.321777" width="256" height="86" fill="black">
<rect fill="white" x="-0.321655" y="-0.321777" width="256" height="86"/>
<path d="M70.6098 0.733422C73.3427 0.567962 76.443 0.754681 79.0612 1.56407C81.0063 2.16532 82.9117 3.23386 83.8635 5.11354C84.5975 6.56304 84.5361 8.17064 84.0236 9.6812C81.1973 18.0109 60.5497 30.6538 52.6091 34.6509C58.4809 34.013 64.5327 33.7804 70.3163 35.1844C79.5744 37.4317 85.9758 42.0951 83.501 52.3856C86.3493 52.6543 88.0987 52.9005 90.8242 53.9397C92.5467 51.2849 94.8075 48.6702 97.8704 47.5635C100.745 46.5427 102.272 49.0667 100.59 51.4363C98.5591 54.2992 94.9161 56.1063 91.5744 56.7969C91.2374 58.1669 90.8806 60.7406 92.6439 61.1492C98.2136 62.44 105.355 57.0477 109.339 53.5942C111.456 51.3398 112.337 48.9974 115.361 47.6472C118.185 46.3857 120.033 47.9599 118.382 50.8396C116.883 53.4543 113.364 55.6705 110.391 56.4486C110.193 57.6461 109.962 60.1958 111.517 60.5037C117.687 61.7255 124.84 55.6587 129.259 51.9343C130.244 51.1045 130.736 48.7773 132.12 48.2429C132.514 48.099 132.755 48.1904 133.067 48.3404C133.439 49.1559 132.765 50.1016 132.282 50.7716C131.406 51.9867 127.559 58.1012 129.251 59.1934C132.411 59.1501 140.649 47.5171 142.182 47.0386C142.796 47.0927 142.561 47.006 143.047 47.4057C143.306 48.8905 137.161 57.2043 139.736 58.4899C142.269 58.5468 149.197 52.9291 150.676 50.8952C152.454 48.4515 154.37 43.5621 155.927 40.6407C159.668 33.6186 173.936 8.45199 180.203 5.51193C180.67 5.29307 181.247 5.13848 181.742 5.36181C182.116 5.53111 182.403 5.87674 182.532 6.26249C184.414 11.8456 164.936 37.1355 160.653 42.3293C158.728 44.6624 153.705 49.6626 152.527 51.8669C150.992 54.7406 146.877 64.5025 147.857 67.4172C147.977 67.7783 148.214 68.0034 148.558 68.1618C151.849 69.682 164.546 56.8417 167.142 54.1529C168.544 52.7012 169.781 51.0282 171.292 49.6948C172.525 48.6069 173.923 47.6356 175.456 47.0246C176.676 46.5391 178.288 46.1613 179.53 46.7547C180.176 47.0634 180.793 47.6856 181.026 48.3711C181.183 48.8313 181.111 49.1517 180.887 49.5656C179.474 50.4976 179.317 48.5485 177.982 48.2694C174.547 47.55 165.972 57.4696 167.813 59.7806C170.553 60.2824 177.452 51.2765 178.443 50.9302C179.082 50.9582 178.898 50.8575 179.314 51.2101C179.493 51.9254 179.239 52.5001 178.93 53.1741C177.758 55.7305 175.436 60.7 180.818 58.7074C181.274 58.5383 181.801 58.2251 182.241 57.9662C187.44 54.9041 191.843 50.7104 195.403 45.8572C196.587 44.2392 197.478 42.1246 198.367 40.32L202.616 31.7065C206.422 24.2036 210.508 16.8466 214.869 9.65145C216.27 7.36475 217.75 5.02817 219.414 2.91637C220.035 2.12967 220.682 1.3732 221.748 1.50205C221.958 1.68221 222.108 1.76583 222.215 2.03232C223.798 5.99904 208.967 29.2809 206.189 33.4283C203.703 37.1395 200.726 40.6624 198.456 44.4901C197.387 46.294 196.575 48.2779 195.698 50.1827L191.494 59.2862L191.563 59.2057C194.057 56.2847 204.173 44.6837 208.377 47.7024C211.819 50.1729 202.748 61.3713 213.902 59.3531C219.801 58.1839 225.689 56.0208 231.419 54.3233C235.639 53.0729 251.342 48.6544 254.447 51.4103C254.645 52.0002 254.639 51.7486 254.519 52.3639C253.584 53.2329 252.658 52.2611 251.478 52.2947C242.144 52.5603 233.016 55.8635 224.159 58.5533C220.196 59.7024 216.231 61.267 212.072 61.4925C208.053 61.71 206.273 60.12 206.157 56.1765C206.305 54.7623 207.669 50.2148 206.959 49.2983C206.005 48.9279 204.083 50.0047 203.306 50.5347C197.292 54.6352 192.384 60.6308 188.584 66.7804C188.183 67.4306 187.644 68.1463 186.868 68.2988C185.352 67.4757 187.569 63.4776 188.103 62.2294C189.654 58.6628 191.243 55.1137 192.872 51.5828C192.26 52.2301 191.622 52.8519 190.958 53.4469C187.988 56.1626 182.527 60.9324 178.235 60.9852C175.584 61.0178 175.5 58.2042 175.701 56.23C174.363 57.6322 172.979 58.9206 171.433 60.089C168.467 62.333 164.67 62.9069 165.889 57.7286C162.734 60.759 152.591 71.4666 147.75 69.9456C143.26 68.535 147.741 58.1725 149.007 54.8562C146.657 56.7776 142.101 60.7587 138.825 60.0709C136.381 59.5576 137.401 55.8539 137.949 54.1841C136.253 55.9765 131.225 61.7105 128.277 60.9881C126.095 60.453 126.954 57.1564 127.579 55.5425C123.791 58.7316 117.252 62.8363 112.179 62.5265C108.698 62.3138 108.04 59.6382 108.337 56.7392C104.307 59.5212 97.8195 64.3372 92.5116 63.1594C88.5193 62.2735 89.0168 58.5135 89.9659 55.5007C87.3144 54.4576 85.7081 54.3551 82.9007 54.1932C78.5457 63.6089 67.9976 70.7526 58.675 75.223C47.1285 80.7604 27.7778 87.1662 14.9527 83.4621C13.4973 83.0529 10.9526 81.5342 10.4653 79.9787C7.95002 71.9522 23.7899 65.464 28.8427 63.2708C33.8666 51.1623 39.6535 39.9773 45.8633 28.4669L49.8828 21.0445C50.593 19.74 52.2456 16.0454 53.7281 15.7992C54.2156 16.0173 54.0108 15.8545 54.3139 16.3592C54.4907 17.8015 51.4037 22.5009 50.6081 23.9305C43.6636 36.4083 36.9833 49.1044 31.3455 62.2305C45.8951 56.5092 65.788 52.1783 81.3837 52.2942C82.0881 49.7461 82.4826 47.3283 81.3801 44.8124C77.871 36.8062 63.9974 35.8486 56.4166 36.5336C54.6533 36.6928 46.6821 38.2966 45.642 37.8087C45.2518 37.6257 45.1947 37.481 45.0796 37.0829C45.2574 36.3928 45.9122 35.7384 46.5226 35.4118C56.2901 30.1875 66.0695 24.6191 74.644 17.55C77.3403 15.3273 81.6745 11.4146 82.1396 7.76153C82.2496 6.89699 81.7983 5.82494 81.2023 5.23903C79.6177 3.38413 74.6176 2.80158 72.1482 2.90725C50.4936 3.83367 24.2209 16.8681 8.59811 31.6192C6.53314 33.5691 2.8091 37.9463 2.69208 40.8177C2.66538 41.4766 3.51746 43.132 3.51858 44.1473C3.19933 44.5467 3.40236 44.394 2.83644 44.5382C1.6034 44.2082 0.782178 42.6057 0.694732 41.4338C0.455575 38.2282 2.87976 34.475 4.98549 32.2451C17.5826 18.9052 37.5838 8.3711 55.0732 3.47093C60.1378 1.99906 65.3471 1.08129 70.6098 0.733422ZM12.7116 79.7885C15.268 82.2632 20.1609 82.6836 23.5975 82.5637C41.6796 81.9354 71.7218 71.1793 80.563 54.1857C78.8836 54.1606 77.045 54.1552 75.3696 54.3085C60.6762 55.3241 43.9323 59.4019 30.277 64.8731C29.4505 67.003 28.8927 68.9231 28.3805 71.1374C28.3113 71.4365 28.0352 71.5676 27.8015 71.7198C27.1851 71.762 27.4028 71.8358 26.9557 71.5036C26.3865 70.1793 27.4392 67.2597 27.9005 65.8892C24.2199 67.4717 9.50486 74.3117 12.7116 79.7885ZM156.45 44.5211C164.344 35.1815 171.792 25.2947 177.742 14.5686C178.775 12.7076 180.335 9.68551 180.726 7.63429L180.463 7.49328C174.018 12.3837 160.178 36.379 156.222 44.4173L156.298 44.5726L156.45 44.5211ZM205.062 31.6886C206.841 29.3352 219.058 9.27466 218.77 7.1913C217.028 9.88998 204.862 30.2971 205.062 31.6886ZM93.5795 54.4477C94.8459 53.8668 99.994 51.0605 99.1965 49.334C98.8259 49.2217 98.8454 49.2224 98.4592 49.2372C96.9152 50.0027 93.1721 52.7901 92.9622 54.4707C93.3325 54.5636 93.1808 54.5487 93.5795 54.4477ZM111.984 54.0388C113.319 53.3613 117.054 51.0399 117.027 49.3407L116.88 49.1185L116.438 49.0438C114.067 50.3855 112.996 51.637 111.61 54.0098L111.699 54.1411L111.984 54.0388Z"/>
</mask>
<path d="M70.6098 0.733422C73.3427 0.567962 76.443 0.754681 79.0612 1.56407C81.0063 2.16532 82.9117 3.23386 83.8635 5.11354C84.5975 6.56304 84.5361 8.17064 84.0236 9.6812C81.1973 18.0109 60.5497 30.6538 52.6091 34.6509C58.4809 34.013 64.5327 33.7804 70.3163 35.1844C79.5744 37.4317 85.9758 42.0951 83.501 52.3856C86.3493 52.6543 88.0987 52.9005 90.8242 53.9397C92.5467 51.2849 94.8075 48.6702 97.8704 47.5635C100.745 46.5427 102.272 49.0667 100.59 51.4363C98.5591 54.2992 94.9161 56.1063 91.5744 56.7969C91.2374 58.1669 90.8806 60.7406 92.6439 61.1492C98.2136 62.44 105.355 57.0477 109.339 53.5942C111.456 51.3398 112.337 48.9974 115.361 47.6472C118.185 46.3857 120.033 47.9599 118.382 50.8396C116.883 53.4543 113.364 55.6705 110.391 56.4486C110.193 57.6461 109.962 60.1958 111.517 60.5037C117.687 61.7255 124.84 55.6587 129.259 51.9343C130.244 51.1045 130.736 48.7773 132.12 48.2429C132.514 48.099 132.755 48.1904 133.067 48.3404C133.439 49.1559 132.765 50.1016 132.282 50.7716C131.406 51.9867 127.559 58.1012 129.251 59.1934C132.411 59.1501 140.649 47.5171 142.182 47.0386C142.796 47.0927 142.561 47.006 143.047 47.4057C143.306 48.8905 137.161 57.2043 139.736 58.4899C142.269 58.5468 149.197 52.9291 150.676 50.8952C152.454 48.4515 154.37 43.5621 155.927 40.6407C159.668 33.6186 173.936 8.45199 180.203 5.51193C180.67 5.29307 181.247 5.13848 181.742 5.36181C182.116 5.53111 182.403 5.87674 182.532 6.26249C184.414 11.8456 164.936 37.1355 160.653 42.3293C158.728 44.6624 153.705 49.6626 152.527 51.8669C150.992 54.7406 146.877 64.5025 147.857 67.4172C147.977 67.7783 148.214 68.0034 148.558 68.1618C151.849 69.682 164.546 56.8417 167.142 54.1529C168.544 52.7012 169.781 51.0282 171.292 49.6948C172.525 48.6069 173.923 47.6356 175.456 47.0246C176.676 46.5391 178.288 46.1613 179.53 46.7547C180.176 47.0634 180.793 47.6856 181.026 48.3711C181.183 48.8313 181.111 49.1517 180.887 49.5656C179.474 50.4976 179.317 48.5485 177.982 48.2694C174.547 47.55 165.972 57.4696 167.813 59.7806C170.553 60.2824 177.452 51.2765 178.443 50.9302C179.082 50.9582 178.898 50.8575 179.314 51.2101C179.493 51.9254 179.239 52.5001 178.93 53.1741C177.758 55.7305 175.436 60.7 180.818 58.7074C181.274 58.5383 181.801 58.2251 182.241 57.9662C187.44 54.9041 191.843 50.7104 195.403 45.8572C196.587 44.2392 197.478 42.1246 198.367 40.32L202.616 31.7065C206.422 24.2036 210.508 16.8466 214.869 9.65145C216.27 7.36475 217.75 5.02817 219.414 2.91637C220.035 2.12967 220.682 1.3732 221.748 1.50205C221.958 1.68221 222.108 1.76583 222.215 2.03232C223.798 5.99904 208.967 29.2809 206.189 33.4283C203.703 37.1395 200.726 40.6624 198.456 44.4901C197.387 46.294 196.575 48.2779 195.698 50.1827L191.494 59.2862L191.563 59.2057C194.057 56.2847 204.173 44.6837 208.377 47.7024C211.819 50.1729 202.748 61.3713 213.902 59.3531C219.801 58.1839 225.689 56.0208 231.419 54.3233C235.639 53.0729 251.342 48.6544 254.447 51.4103C254.645 52.0002 254.639 51.7486 254.519 52.3639C253.584 53.2329 252.658 52.2611 251.478 52.2947C242.144 52.5603 233.016 55.8635 224.159 58.5533C220.196 59.7024 216.231 61.267 212.072 61.4925C208.053 61.71 206.273 60.12 206.157 56.1765C206.305 54.7623 207.669 50.2148 206.959 49.2983C206.005 48.9279 204.083 50.0047 203.306 50.5347C197.292 54.6352 192.384 60.6308 188.584 66.7804C188.183 67.4306 187.644 68.1463 186.868 68.2988C185.352 67.4757 187.569 63.4776 188.103 62.2294C189.654 58.6628 191.243 55.1137 192.872 51.5828C192.26 52.2301 191.622 52.8519 190.958 53.4469C187.988 56.1626 182.527 60.9324 178.235 60.9852C175.584 61.0178 175.5 58.2042 175.701 56.23C174.363 57.6322 172.979 58.9206 171.433 60.089C168.467 62.333 164.67 62.9069 165.889 57.7286C162.734 60.759 152.591 71.4666 147.75 69.9456C143.26 68.535 147.741 58.1725 149.007 54.8562C146.657 56.7776 142.101 60.7587 138.825 60.0709C136.381 59.5576 137.401 55.8539 137.949 54.1841C136.253 55.9765 131.225 61.7105 128.277 60.9881C126.095 60.453 126.954 57.1564 127.579 55.5425C123.791 58.7316 117.252 62.8363 112.179 62.5265C108.698 62.3138 108.04 59.6382 108.337 56.7392C104.307 59.5212 97.8195 64.3372 92.5116 63.1594C88.5193 62.2735 89.0168 58.5135 89.9659 55.5007C87.3144 54.4576 85.7081 54.3551 82.9007 54.1932C78.5457 63.6089 67.9976 70.7526 58.675 75.223C47.1285 80.7604 27.7778 87.1662 14.9527 83.4621C13.4973 83.0529 10.9526 81.5342 10.4653 79.9787C7.95002 71.9522 23.7899 65.464 28.8427 63.2708C33.8666 51.1623 39.6535 39.9773 45.8633 28.4669L49.8828 21.0445C50.593 19.74 52.2456 16.0454 53.7281 15.7992C54.2156 16.0173 54.0108 15.8545 54.3139 16.3592C54.4907 17.8015 51.4037 22.5009 50.6081 23.9305C43.6636 36.4083 36.9833 49.1044 31.3455 62.2305C45.8951 56.5092 65.788 52.1783 81.3837 52.2942C82.0881 49.7461 82.4826 47.3283 81.3801 44.8124C77.871 36.8062 63.9974 35.8486 56.4166 36.5336C54.6533 36.6928 46.6821 38.2966 45.642 37.8087C45.2518 37.6257 45.1947 37.481 45.0796 37.0829C45.2574 36.3928 45.9122 35.7384 46.5226 35.4118C56.2901 30.1875 66.0695 24.6191 74.644 17.55C77.3403 15.3273 81.6745 11.4146 82.1396 7.76153C82.2496 6.89699 81.7983 5.82494 81.2023 5.23903C79.6177 3.38413 74.6176 2.80158 72.1482 2.90725C50.4936 3.83367 24.2209 16.8681 8.59811 31.6192C6.53314 33.5691 2.8091 37.9463 2.69208 40.8177C2.66538 41.4766 3.51746 43.132 3.51858 44.1473C3.19933 44.5467 3.40236 44.394 2.83644 44.5382C1.6034 44.2082 0.782178 42.6057 0.694732 41.4338C0.455575 38.2282 2.87976 34.475 4.98549 32.2451C17.5826 18.9052 37.5838 8.3711 55.0732 3.47093C60.1378 1.99906 65.3471 1.08129 70.6098 0.733422ZM12.7116 79.7885C15.268 82.2632 20.1609 82.6836 23.5975 82.5637C41.6796 81.9354 71.7218 71.1793 80.563 54.1857C78.8836 54.1606 77.045 54.1552 75.3696 54.3085C60.6762 55.3241 43.9323 59.4019 30.277 64.8731C29.4505 67.003 28.8927 68.9231 28.3805 71.1374C28.3113 71.4365 28.0352 71.5676 27.8015 71.7198C27.1851 71.762 27.4028 71.8358 26.9557 71.5036C26.3865 70.1793 27.4392 67.2597 27.9005 65.8892C24.2199 67.4717 9.50486 74.3117 12.7116 79.7885ZM156.45 44.5211C164.344 35.1815 171.792 25.2947 177.742 14.5686C178.775 12.7076 180.335 9.68551 180.726 7.63429L180.463 7.49328C174.018 12.3837 160.178 36.379 156.222 44.4173L156.298 44.5726L156.45 44.5211ZM205.062 31.6886C206.841 29.3352 219.058 9.27466 218.77 7.1913C217.028 9.88998 204.862 30.2971 205.062 31.6886ZM93.5795 54.4477C94.8459 53.8668 99.994 51.0605 99.1965 49.334C98.8259 49.2217 98.8454 49.2224 98.4592 49.2372C96.9152 50.0027 93.1721 52.7901 92.9622 54.4707C93.3325 54.5636 93.1808 54.5487 93.5795 54.4477ZM111.984 54.0388C113.319 53.3613 117.054 51.0399 117.027 49.3407L116.88 49.1185L116.438 49.0438C114.067 50.3855 112.996 51.637 111.61 54.0098L111.699 54.1411L111.984 54.0388Z" fill="#FEFBF6"/>
<path d="M70.6098 0.733422C73.3427 0.567962 76.443 0.754681 79.0612 1.56407C81.0063 2.16532 82.9117 3.23386 83.8635 5.11354C84.5975 6.56304 84.5361 8.17064 84.0236 9.6812C81.1973 18.0109 60.5497 30.6538 52.6091 34.6509C58.4809 34.013 64.5327 33.7804 70.3163 35.1844C79.5744 37.4317 85.9758 42.0951 83.501 52.3856C86.3493 52.6543 88.0987 52.9005 90.8242 53.9397C92.5467 51.2849 94.8075 48.6702 97.8704 47.5635C100.745 46.5427 102.272 49.0667 100.59 51.4363C98.5591 54.2992 94.9161 56.1063 91.5744 56.7969C91.2374 58.1669 90.8806 60.7406 92.6439 61.1492C98.2136 62.44 105.355 57.0477 109.339 53.5942C111.456 51.3398 112.337 48.9974 115.361 47.6472C118.185 46.3857 120.033 47.9599 118.382 50.8396C116.883 53.4543 113.364 55.6705 110.391 56.4486C110.193 57.6461 109.962 60.1958 111.517 60.5037C117.687 61.7255 124.84 55.6587 129.259 51.9343C130.244 51.1045 130.736 48.7773 132.12 48.2429C132.514 48.099 132.755 48.1904 133.067 48.3404C133.439 49.1559 132.765 50.1016 132.282 50.7716C131.406 51.9867 127.559 58.1012 129.251 59.1934C132.411 59.1501 140.649 47.5171 142.182 47.0386C142.796 47.0927 142.561 47.006 143.047 47.4057C143.306 48.8905 137.161 57.2043 139.736 58.4899C142.269 58.5468 149.197 52.9291 150.676 50.8952C152.454 48.4515 154.37 43.5621 155.927 40.6407C159.668 33.6186 173.936 8.45199 180.203 5.51193C180.67 5.29307 181.247 5.13848 181.742 5.36181C182.116 5.53111 182.403 5.87674 182.532 6.26249C184.414 11.8456 164.936 37.1355 160.653 42.3293C158.728 44.6624 153.705 49.6626 152.527 51.8669C150.992 54.7406 146.877 64.5025 147.857 67.4172C147.977 67.7783 148.214 68.0034 148.558 68.1618C151.849 69.682 164.546 56.8417 167.142 54.1529C168.544 52.7012 169.781 51.0282 171.292 49.6948C172.525 48.6069 173.923 47.6356 175.456 47.0246C176.676 46.5391 178.288 46.1613 179.53 46.7547C180.176 47.0634 180.793 47.6856 181.026 48.3711C181.183 48.8313 181.111 49.1517 180.887 49.5656C179.474 50.4976 179.317 48.5485 177.982 48.2694C174.547 47.55 165.972 57.4696 167.813 59.7806C170.553 60.2824 177.452 51.2765 178.443 50.9302C179.082 50.9582 178.898 50.8575 179.314 51.2101C179.493 51.9254 179.239 52.5001 178.93 53.1741C177.758 55.7305 175.436 60.7 180.818 58.7074C181.274 58.5383 181.801 58.2251 182.241 57.9662C187.44 54.9041 191.843 50.7104 195.403 45.8572C196.587 44.2392 197.478 42.1246 198.367 40.32L202.616 31.7065C206.422 24.2036 210.508 16.8466 214.869 9.65145C216.27 7.36475 217.75 5.02817 219.414 2.91637C220.035 2.12967 220.682 1.3732 221.748 1.50205C221.958 1.68221 222.108 1.76583 222.215 2.03232C223.798 5.99904 208.967 29.2809 206.189 33.4283C203.703 37.1395 200.726 40.6624 198.456 44.4901C197.387 46.294 196.575 48.2779 195.698 50.1827L191.494 59.2862L191.563 59.2057C194.057 56.2847 204.173 44.6837 208.377 47.7024C211.819 50.1729 202.748 61.3713 213.902 59.3531C219.801 58.1839 225.689 56.0208 231.419 54.3233C235.639 53.0729 251.342 48.6544 254.447 51.4103C254.645 52.0002 254.639 51.7486 254.519 52.3639C253.584 53.2329 252.658 52.2611 251.478 52.2947C242.144 52.5603 233.016 55.8635 224.159 58.5533C220.196 59.7024 216.231 61.267 212.072 61.4925C208.053 61.71 206.273 60.12 206.157 56.1765C206.305 54.7623 207.669 50.2148 206.959 49.2983C206.005 48.9279 204.083 50.0047 203.306 50.5347C197.292 54.6352 192.384 60.6308 188.584 66.7804C188.183 67.4306 187.644 68.1463 186.868 68.2988C185.352 67.4757 187.569 63.4776 188.103 62.2294C189.654 58.6628 191.243 55.1137 192.872 51.5828C192.26 52.2301 191.622 52.8519 190.958 53.4469C187.988 56.1626 182.527 60.9324 178.235 60.9852C175.584 61.0178 175.5 58.2042 175.701 56.23C174.363 57.6322 172.979 58.9206 171.433 60.089C168.467 62.333 164.67 62.9069 165.889 57.7286C162.734 60.759 152.591 71.4666 147.75 69.9456C143.26 68.535 147.741 58.1725 149.007 54.8562C146.657 56.7776 142.101 60.7587 138.825 60.0709C136.381 59.5576 137.401 55.8539 137.949 54.1841C136.253 55.9765 131.225 61.7105 128.277 60.9881C126.095 60.453 126.954 57.1564 127.579 55.5425C123.791 58.7316 117.252 62.8363 112.179 62.5265C108.698 62.3138 108.04 59.6382 108.337 56.7392C104.307 59.5212 97.8195 64.3372 92.5116 63.1594C88.5193 62.2735 89.0168 58.5135 89.9659 55.5007C87.3144 54.4576 85.7081 54.3551 82.9007 54.1932C78.5457 63.6089 67.9976 70.7526 58.675 75.223C47.1285 80.7604 27.7778 87.1662 14.9527 83.4621C13.4973 83.0529 10.9526 81.5342 10.4653 79.9787C7.95002 71.9522 23.7899 65.464 28.8427 63.2708C33.8666 51.1623 39.6535 39.9773 45.8633 28.4669L49.8828 21.0445C50.593 19.74 52.2456 16.0454 53.7281 15.7992C54.2156 16.0173 54.0108 15.8545 54.3139 16.3592C54.4907 17.8015 51.4037 22.5009 50.6081 23.9305C43.6636 36.4083 36.9833 49.1044 31.3455 62.2305C45.8951 56.5092 65.788 52.1783 81.3837 52.2942C82.0881 49.7461 82.4826 47.3283 81.3801 44.8124C77.871 36.8062 63.9974 35.8486 56.4166 36.5336C54.6533 36.6928 46.6821 38.2966 45.642 37.8087C45.2518 37.6257 45.1947 37.481 45.0796 37.0829C45.2574 36.3928 45.9122 35.7384 46.5226 35.4118C56.2901 30.1875 66.0695 24.6191 74.644 17.55C77.3403 15.3273 81.6745 11.4146 82.1396 7.76153C82.2496 6.89699 81.7983 5.82494 81.2023 5.23903C79.6177 3.38413 74.6176 2.80158 72.1482 2.90725C50.4936 3.83367 24.2209 16.8681 8.59811 31.6192C6.53314 33.5691 2.8091 37.9463 2.69208 40.8177C2.66538 41.4766 3.51746 43.132 3.51858 44.1473C3.19933 44.5467 3.40236 44.394 2.83644 44.5382C1.6034 44.2082 0.782178 42.6057 0.694732 41.4338C0.455575 38.2282 2.87976 34.475 4.98549 32.2451C17.5826 18.9052 37.5838 8.3711 55.0732 3.47093C60.1378 1.99906 65.3471 1.08129 70.6098 0.733422ZM12.7116 79.7885C15.268 82.2632 20.1609 82.6836 23.5975 82.5637C41.6796 81.9354 71.7218 71.1793 80.563 54.1857C78.8836 54.1606 77.045 54.1552 75.3696 54.3085C60.6762 55.3241 43.9323 59.4019 30.277 64.8731C29.4505 67.003 28.8927 68.9231 28.3805 71.1374C28.3113 71.4365 28.0352 71.5676 27.8015 71.7198C27.1851 71.762 27.4028 71.8358 26.9557 71.5036C26.3865 70.1793 27.4392 67.2597 27.9005 65.8892C24.2199 67.4717 9.50486 74.3117 12.7116 79.7885ZM156.45 44.5211C164.344 35.1815 171.792 25.2947 177.742 14.5686C178.775 12.7076 180.335 9.68551 180.726 7.63429L180.463 7.49328C174.018 12.3837 160.178 36.379 156.222 44.4173L156.298 44.5726L156.45 44.5211ZM205.062 31.6886C206.841 29.3352 219.058 9.27466 218.77 7.1913C217.028 9.88998 204.862 30.2971 205.062 31.6886ZM93.5795 54.4477C94.8459 53.8668 99.994 51.0605 99.1965 49.334C98.8259 49.2217 98.8454 49.2224 98.4592 49.2372C96.9152 50.0027 93.1721 52.7901 92.9622 54.4707C93.3325 54.5636 93.1808 54.5487 93.5795 54.4477ZM111.984 54.0388C113.319 53.3613 117.054 51.0399 117.027 49.3407L116.88 49.1185L116.438 49.0438C114.067 50.3855 112.996 51.637 111.61 54.0098L111.699 54.1411L111.984 54.0388Z" stroke="#FEFBF6" stroke-width="1.35664" mask="url(#path-1-outside-1_827_32868)"/>
</g>
</svg>
