<svg width="50" height="50" viewBox="0 0 50 50" fill="none" xmlns="http://www.w3.org/2000/svg">
<rect x="0.5" y="0.5" width="49" height="49" rx="3.5" stroke="#EAEAEA"/>
<path d="M24.9999 24.9992C24.9999 22.8822 26.716 21.166 28.833 21.166C30.95 21.166 32.6662 22.8822 32.6662 24.9992C32.6662 27.1162 30.95 28.8323 28.833 28.8323C26.716 28.8323 24.9999 27.1162 24.9999 24.9992Z" fill="#1ABCFE"/>
<path d="M17.3339 32.6669C17.3339 30.5499 19.05 28.8337 21.167 28.8337H25.0001V32.6669C25.0001 34.7839 23.284 36.5 21.167 36.5C19.05 36.5 17.3339 34.7839 17.3339 32.6669Z" fill="#0ACF83"/>
<path d="M24.9999 13.5V21.1662H28.833C30.95 21.1662 32.6662 19.4501 32.6662 17.3331C32.6662 15.2162 30.95 13.5 28.833 13.5H24.9999Z" fill="#FF7262"/>
<path d="M17.3339 17.3331C17.3339 19.4501 19.05 21.1662 21.167 21.1662H25.0001V13.5H21.167C19.05 13.5 17.3339 15.2162 17.3339 17.3331Z" fill="#F24E1E"/>
<path d="M17.3339 24.9992C17.3339 27.1162 19.05 28.8323 21.167 28.8323H25.0001V21.166H21.167C19.05 21.166 17.3339 22.8822 17.3339 24.9992Z" fill="#A259FF"/>
</svg>
