<svg width="50" height="50" viewBox="0 0 50 50" fill="none" xmlns="http://www.w3.org/2000/svg">
<rect x="0.5" y="0.5" width="49" height="49" rx="3.5" stroke="#EAEAEA"/>
<path d="M16.4597 18.2462C16.3923 18.0242 15.8843 17.5263 15.6935 17.2887C15.0134 16.4418 14.1304 15.6384 13.5935 14.6861C13.4757 14.4771 13.4561 14.1612 13.5423 13.963C13.7134 13.5814 14.2924 13.507 14.672 13.5044C15.864 13.496 17.0597 13.5034 18.2533 13.5048L24.9573 13.5054L31.7776 13.5033C33 13.5024 34.2237 13.4932 35.4461 13.51C36.4553 13.524 36.5296 14.1398 36.522 14.9857C36.4964 17.818 36.5364 20.6515 36.5114 23.4835C36.5101 23.6303 36.4906 23.9107 36.4137 24.0318C36.0766 24.5625 35.6294 25.0633 35.2274 25.5466C34.4286 26.5108 33.6229 27.4693 32.8103 28.4218L29.0362 32.9132L27.4081 34.8394C27.1488 35.1409 26.7431 35.6324 26.4655 35.8964C26.1802 36.1642 25.832 36.3558 25.4531 36.4535C25.2902 36.4963 25.1686 36.4982 25.0013 36.4995C24.3864 36.5135 23.8203 36.237 23.4053 35.786C22.5685 34.8764 21.7895 33.9035 20.9929 32.9572L16.3876 27.4836L14.3928 25.1243C14.2544 24.9582 13.6415 24.2403 13.5823 24.0893C13.0355 22.6937 14.7657 22.7779 15.6099 22.8216C15.9111 22.8372 16.1288 22.8057 16.4341 22.9017C16.3489 22.6782 15.7926 22.1089 15.6176 21.9116C15.0353 21.2604 14.492 20.5799 13.9246 19.9154C13.6508 19.5964 13.379 19.2052 13.5172 18.7635C13.6403 18.37 14.104 18.1653 14.4886 18.1649C15.0272 18.1645 15.9605 18.0714 16.4597 18.2462Z" fill="#FE5452"/>
<path d="M16.4341 22.9013C16.3489 22.6778 15.7926 22.1086 15.6176 21.9112C15.0353 21.26 14.492 20.5796 13.9246 19.9151C13.6508 19.596 13.379 19.2048 13.5172 18.7631C13.6403 18.3696 14.104 18.1649 14.4886 18.1646C15.0272 18.1641 15.9605 18.071 16.4597 18.2458C16.9488 18.7473 17.4714 19.3974 17.9319 19.9435L20.5024 23.0053L23.0978 26.0883C23.6777 26.7694 24.4537 27.6311 24.9707 28.341C25.0065 28.9062 25.0392 32.4959 24.9355 32.8947C25.0527 33.3108 25.0035 35.9142 25.0013 36.4991C24.3864 36.5131 23.8203 36.2366 23.4053 35.7856C22.5685 34.8761 21.7895 33.9031 20.9929 32.9569L16.3876 27.4833L14.3928 25.124C14.2544 24.9578 13.6415 24.2399 13.5823 24.0889C13.0355 22.6933 14.7657 22.7776 15.6099 22.8213C15.9111 22.8368 16.1288 22.8054 16.4341 22.9013Z" fill="#FE9C8F"/>
<path d="M25.0013 36.4993C24.3864 36.5133 23.8203 36.2368 23.4053 35.7858C22.5685 34.8762 21.7895 33.9033 20.9929 32.957L16.3876 27.4834L14.3928 25.1241C14.2544 24.958 13.6415 24.2401 13.5823 24.0891C13.0355 22.6935 14.7657 22.7777 15.6099 22.8214C15.9111 22.837 16.1288 22.8055 16.4341 22.9015C16.8658 23.4353 17.4614 24.0869 17.923 24.6354L22.1186 29.6182C22.5003 30.0715 24.5602 32.6292 24.9355 32.8948C25.0527 33.311 25.0035 35.9144 25.0013 36.4993Z" fill="#FDD0CC"/>
</svg>
