<svg width="50" height="50" viewBox="0 0 50 50" fill="none" xmlns="http://www.w3.org/2000/svg">
<rect x="0.5" y="0.5" width="49" height="49" rx="3.5" stroke="#EAEAEA"/>
<path d="M24.7767 13.501C25.2047 13.4927 25.6023 13.5328 25.9909 13.7134C27.4259 14.3802 28.8086 15.2848 30.1726 16.0681L32.9428 17.6601C35.3476 19.069 35.2625 19.1614 35.2689 21.9241L35.2733 25.0826L35.2755 28.1323C35.2734 30.9491 35.2242 31.004 32.8347 32.3811L30.3488 33.8114C29.2653 34.4408 26.3229 36.3645 25.2307 36.4896C24.1621 36.5812 23.4661 36.053 22.5834 35.5481L19.8699 33.9706L17.32 32.5074C14.59 30.9521 14.7362 30.9664 14.7314 27.825L14.7304 24.2818L14.7267 21.6635C14.7262 21.1974 14.7091 20.4061 14.7789 19.9642C14.8388 19.581 14.9994 19.2206 15.2442 18.9197C15.4193 18.7015 15.6265 18.5112 15.8588 18.3553C16.2305 18.103 16.7867 17.8232 17.1877 17.5924L19.5438 16.2154C20.6537 15.5738 23.6678 13.6245 24.7767 13.501Z" fill="black"/>
<path d="M24.913 15.6669C25.4045 15.6487 28.5197 17.6268 29.2101 17.9731C30.0037 18.3713 31.3405 19.1763 32.0621 19.6844C31.3691 20.1169 30.6325 20.4979 29.9213 20.9034L27.3149 22.4189C26.6433 22.8006 25.7623 23.407 25.0761 23.6627C24.65 23.6889 23.2347 22.7362 22.7767 22.4755L17.8892 19.6734C18.8136 19.0449 20.0217 18.3842 21.0213 17.8284C22.0795 17.2399 23.8527 16.0739 24.913 15.6669Z" fill="white"/>
<path d="M33.0673 21.6174C33.1034 21.6317 33.1228 21.6561 33.1539 21.684L33.1628 26.6753C33.1635 27.5649 33.2035 28.8994 33.116 29.7513C32.1938 30.225 31.6102 30.649 30.74 31.1565C29.2663 32.016 27.6401 32.8385 26.2067 33.768C26.1224 33.6102 26.1352 33.1178 26.1371 32.9155C26.1586 30.5844 26.1368 28.2536 26.1335 25.9227C26.1334 25.7936 26.1388 25.5899 26.1892 25.4768C26.5918 25.4506 27.1986 24.9105 27.5816 24.7003C29.1072 23.8629 30.6196 23.001 32.1007 22.0868C32.4042 21.8994 32.7348 21.7454 33.0673 21.6174Z" fill="white"/>
</svg>
