<svg width="50" height="50" viewBox="0 0 50 50" fill="none" xmlns="http://www.w3.org/2000/svg">
<rect x="0.5" y="0.5" width="49" height="49" rx="3.5" stroke="#EAEAEA"/>
<path d="M37.1932 25H31.4089C30.8553 25 30.4066 24.5513 30.4066 23.9977L30.4066 13.922C30.4066 13.6889 30.2176 13.5 29.9845 13.5H27.2242C26.9912 13.5 26.8022 13.6889 26.8022 13.922V23.9977C26.8022 24.5513 26.3535 25 25.7999 25H24.2002C23.6467 25 23.1979 24.5513 23.1979 23.9978V13.922C23.1979 13.6889 23.0089 13.5 22.7759 13.5H20.0156C19.7825 13.5 19.5935 13.6889 19.5935 13.922L19.5935 23.9977C19.5935 24.5513 19.1448 25 18.5912 25H12.8069C12.5738 25 12.3849 25.1889 12.3849 25.422V36.078C12.3849 36.3111 12.5738 36.5 12.8069 36.5H19.1715C19.4046 36.5 19.5935 36.3111 19.5935 36.078V26.0022C19.5936 25.4487 20.0423 25 20.5958 25H22.1956C22.7491 25 23.1979 25.4487 23.1979 26.0023V36.078C23.1979 36.3111 23.3868 36.5 23.6199 36.5H26.3802C26.6133 36.5 26.8022 36.3111 26.8022 36.078V26.0023C26.8022 25.4487 27.251 25 27.8045 25H29.4043C29.9578 25 30.4065 25.4487 30.4066 26.0022V36.078C30.4066 36.3111 30.5955 36.5 30.8286 36.5H37.1932C37.4263 36.5 37.6152 36.3111 37.6152 36.078V25.422C37.6152 25.1889 37.4263 25 37.1932 25Z" fill="black"/>
</svg>
