<svg width="50" height="50" viewBox="0 0 50 50" fill="none" xmlns="http://www.w3.org/2000/svg">
<rect x="0.5" y="0.5" width="49" height="49" rx="3.5" stroke="#EAEAEA"/>
<g clip-path="url(#clip0_827_32839)">
<path d="M23.2271 22.94C25.8882 21.4827 29.5631 19.4552 29.5631 13.4993H25.1279C25.1279 16.794 23.5439 17.6811 21.0728 19.075C18.4116 20.5323 14.7367 22.5599 14.7367 28.4524H19.172C19.172 25.1577 20.756 24.2706 23.2271 22.94Z" fill="#FF3C00"/>
<path d="M30.8299 21.5471C30.8299 24.8419 29.2459 25.7289 26.7748 27.1229C24.1137 28.5802 20.4387 30.6077 20.4387 36.5636H24.874C24.874 33.2689 26.458 32.3818 28.9291 30.9879C31.5902 29.5306 35.2652 27.503 35.2652 21.5471H30.8299Z" fill="#FF3C00"/>
</g>
<defs>
<clipPath id="clip0_827_32839">
<rect width="20.5289" height="23" fill="white" transform="translate(14.7356 13.5)"/>
</clipPath>
</defs>
</svg>
