<svg width="50" height="50" viewBox="0 0 50 50" fill="none" xmlns="http://www.w3.org/2000/svg">
<rect x="0.5" y="0.5" width="49" height="49" rx="3.5" stroke="#EAEAEA"/>
<path d="M15.4078 14.5105L28.0996 13.5568C29.6402 13.41 30.0437 13.5201 31.0341 14.217L35.1058 17.0782C35.7661 17.555 35.9861 17.7018 35.9861 18.252V33.915C35.9861 34.9054 35.6193 35.4923 34.3722 35.5657L19.6262 36.446C18.6725 36.4827 18.2323 36.3727 17.7554 35.7491L14.7842 31.8975C14.234 31.1639 14.0139 30.6503 14.0139 30.0268V16.0878C14.0139 15.2808 14.3807 14.5838 15.4078 14.5105Z" fill="white"/>
<path fill-rule="evenodd" clip-rule="evenodd" d="M28.0996 13.5569L15.4078 14.5106C14.3807 14.584 14.0139 15.2809 14.0139 16.0879V30.0269C14.0139 30.6505 14.234 31.2007 14.7842 31.8977L17.7554 35.7859C18.2323 36.4095 18.7092 36.5562 19.6262 36.4828L34.3722 35.6025C35.6193 35.5291 35.9861 34.9422 35.9861 33.9518V18.2521C35.9861 17.7386 35.8027 17.5919 35.1792 17.1517C35.1425 17.115 35.1058 17.115 35.0691 17.0783L31.0341 14.2538C30.0804 13.5202 29.6769 13.4468 28.0996 13.5569ZM19.9563 17.9954C18.7458 18.0687 18.4891 18.1054 17.7921 17.5185L16.0681 16.1613C15.8847 15.9779 15.958 15.7578 16.4349 15.7211L28.6498 14.8407C29.6769 14.7674 30.1905 15.0975 30.594 15.4276L32.6848 16.9316C32.7949 16.9683 33.0149 17.225 32.7215 17.225L20.103 17.9954H19.9563ZM18.5624 33.8051V20.4897C18.5624 19.9028 18.7458 19.646 19.2594 19.6093L33.7486 18.7657C34.2254 18.729 34.4455 19.0224 34.4455 19.6093V32.8147C34.4455 33.4016 34.3355 33.8785 33.5652 33.9151L19.6996 34.7221C18.9292 34.7955 18.5624 34.502 18.5624 33.8051ZM32.2446 21.2233C32.318 21.6268 32.2446 22.0303 31.8411 22.067L31.1809 22.2137V32.0444C30.594 32.3745 30.0804 32.5212 29.6402 32.5212C28.9433 32.5212 28.7599 32.3011 28.2097 31.6409L23.8079 24.7448V31.3841L25.2018 31.7142C25.2018 31.7142 25.2018 32.5212 24.1013 32.5212L21.0201 32.7046C20.9467 32.5212 21.0201 32.0811 21.3135 32.0077L22.1205 31.7876V22.984L21.0201 22.874C20.9467 22.4705 21.1668 21.8836 21.7904 21.8469L25.0917 21.6268L29.6402 28.5963V22.4338L28.4664 22.2871C28.3931 21.8102 28.7232 21.4434 29.1634 21.4067L32.2446 21.2233Z" fill="black"/>
</svg>
