<svg width="50" height="50" viewBox="0 0 50 50" fill="none" xmlns="http://www.w3.org/2000/svg">
<rect x="0.5" y="0.5" width="49" height="49" rx="3.5" stroke="#EAEAEA"/>
<g clip-path="url(#clip0_827_32816)">
<path d="M11.472 36.2313C12.2678 36.2313 13.4614 34.5603 14.8539 34.3215C15.6496 34.3215 16.2464 35.9926 18.2358 36.2313C19.6283 36.2313 20.2251 34.5603 21.6176 34.5603C23.0101 34.5603 23.6069 36.2313 24.9995 36.2313C26.392 36.2313 26.9888 34.5603 28.3813 34.5603C29.7738 34.5603 30.3706 36.2313 31.7632 36.2313C33.1557 36.2313 33.7525 34.5603 35.145 34.5603C36.5375 34.5603 37.1343 36.2313 38.5269 36.2313" stroke="#4098E1" stroke-width="1.2" stroke-linecap="round" stroke-linejoin="round"/>
<path d="M14.1935 34.5683L13.2823 32.8256L36.7564 31.3137C34.9103 32.9927 32.539 34.3534 30.1399 35.4674" stroke="#4098E1" stroke-width="1.2" stroke-linecap="round" stroke-linejoin="round"/>
<path d="M22.629 16.5925C26.6236 17.814 32.2096 23.7143 34.1114 30.0563C33.069 29.6465 32.2892 29.2287 30.825 29.6027C29.4086 24.4504 26.8742 19.5288 22.629 16.5925Z" stroke="#4098E1" stroke-width="1.2" stroke-linecap="round" stroke-linejoin="round"/>
<path d="M15.2013 13.7727C20.3179 15.961 27.3362 22.0523 28.6253 30.1647C22.725 27.7855 18.2331 29.0547 15.1058 30.9843C19.8762 24.9209 17.7357 18.0259 15.2013 13.7727Z" stroke="#4098E1" stroke-width="1.2" stroke-linecap="round" stroke-linejoin="round"/>
</g>
<defs>
<clipPath id="clip0_827_32816">
<rect width="27.7891" height="23.1756" fill="white" transform="translate(11.1055 13.4121)"/>
</clipPath>
</defs>
</svg>
