<svg width="50" height="50" viewBox="0 0 50 50" fill="none" xmlns="http://www.w3.org/2000/svg">
<rect x="0.5" y="0.5" width="49" height="49" rx="3.5" stroke="#EAEAEA"/>
<path d="M25.0004 19.6271C25.0004 19.6401 25.0004 19.6463 25.0004 19.6547C25.005 20.0393 25.1682 20.4338 25.4371 20.7088C25.4432 20.7149 25.444 20.7157 25.4448 20.7165C25.4555 20.7272 25.4608 20.7326 25.4723 20.7433C25.7428 21.003 26.1273 21.1623 26.5027 21.17C26.518 21.17 26.5318 21.17 26.5579 21.17H30.2098C31.0678 21.17 31.4968 21.17 31.8247 21.337C32.1127 21.4841 32.3471 21.7185 32.4942 22.0065C32.6612 22.3344 32.6612 22.7634 32.6612 23.6214V26.3793C32.6612 27.2373 32.6612 27.6663 32.4942 27.9942C32.3471 28.2823 32.1127 28.5167 31.8247 28.6638C31.4968 28.8308 31.0678 28.8308 30.2098 28.8308H26.5104C26.1166 28.8315 25.7121 28.9993 25.4333 29.2766C25.4317 29.2782 25.4532 29.2567 25.4448 29.2651C25.4432 29.2667 25.4425 29.2667 25.4363 29.2736C25.1674 29.5486 25.0043 29.9424 24.9997 30.3269C24.9997 30.3354 24.9997 30.3423 24.9997 30.3545V34.0485C24.9997 34.9066 24.9997 35.3356 24.8327 35.6634C24.6856 35.9515 24.4511 36.1859 24.1631 36.333C23.8352 36.5 23.4062 36.5 22.5482 36.5H19.7903C18.9323 36.5 18.5033 36.5 18.1754 36.333C17.8874 36.1859 17.653 35.9515 17.5059 35.6634C17.3389 35.3356 17.3389 34.9066 17.3389 34.0485V31.2907C17.3389 30.4326 17.3389 30.0036 17.5059 29.6758C17.653 29.3877 17.8874 29.1533 18.1754 29.0062C18.5033 28.8392 18.9323 28.8392 19.7903 28.8392H23.3832C23.4376 28.8392 23.4644 28.8392 23.4928 28.8384C23.8505 28.8254 24.2152 28.6745 24.478 28.4301C24.4986 28.411 24.514 28.3956 24.5446 28.365C24.5561 28.3535 24.5615 28.3481 24.5722 28.3374C24.8334 28.0655 24.992 27.6824 24.9997 27.3055C24.9997 27.2902 24.9997 27.2772 24.9997 27.2511V22.7297C24.9997 22.7029 24.9997 22.6899 24.9997 22.6746C24.992 22.2977 24.8334 21.9146 24.5722 21.6434C24.5615 21.6327 24.5561 21.6266 24.5446 21.6151C24.5331 21.6036 24.5278 21.5982 24.5163 21.5875C24.2443 21.3263 23.8613 21.1677 23.4844 21.16C23.469 21.16 23.456 21.16 23.43 21.16H19.7903C18.9323 21.16 18.5033 21.16 18.1754 20.993C17.8874 20.8459 17.653 20.6115 17.5059 20.3235C17.3389 19.9956 17.3389 19.5666 17.3389 18.7086V15.9507C17.3396 15.0934 17.3396 14.6644 17.5066 14.3366C17.6537 14.0485 17.8881 13.8141 18.1762 13.667C18.5041 13.5 18.9331 13.5 19.7911 13.5H22.549C23.407 13.5 23.836 13.5 24.1639 13.667C24.4519 13.8141 24.6863 14.0485 24.8334 14.3366C25.0004 14.6644 25.0004 15.0934 25.0004 15.9515V19.6271Z" fill="#FF3C00"/>
</svg>
