<svg width="50" height="50" viewBox="0 0 50 50" fill="none" xmlns="http://www.w3.org/2000/svg">
<rect x="0.5" y="0.5" width="49" height="49" rx="3.5" stroke="#EAEAEA"/>
<path fill-rule="evenodd" clip-rule="evenodd" d="M15.0854 27.9657L19.884 30.7434C19.9319 30.7721 19.9607 30.82 19.9607 30.8775V36.4233C19.9607 36.4807 20.0277 36.519 20.0756 36.4903L24.8743 33.7126C24.9222 33.6839 24.9509 33.636 24.9509 33.5785V27.9849C24.9509 27.9274 24.9222 27.8795 24.8743 27.8508L19.9607 25.0156L15.0854 27.8316C15.0375 27.8604 15.0375 27.9274 15.0854 27.9657Z" fill="black"/>
<path fill-rule="evenodd" clip-rule="evenodd" d="M24.8839 16.3184L20.0373 13.5216C19.9894 13.4928 19.9319 13.4928 19.884 13.5216L15.0854 16.2992C15.0375 16.328 15.0375 16.4046 15.0854 16.4333L19.884 19.211C19.9319 19.2397 19.9607 19.2876 19.9607 19.3451V25.025L24.9509 22.1419V16.4525C24.9605 16.395 24.9317 16.3471 24.8839 16.3184Z" fill="black"/>
<path fill-rule="evenodd" clip-rule="evenodd" d="M34.8738 22.0845L30.0368 19.2877C29.9889 19.2589 29.9315 19.2589 29.8836 19.2877L24.97 22.1228L29.8836 24.9675C29.9315 24.9963 29.9602 25.0442 29.9602 25.1016V30.6474C29.9602 30.7049 30.0273 30.7432 30.0752 30.7145L34.8738 27.9368C34.9217 27.908 34.9505 27.8602 34.9505 27.8027V22.2186C34.9505 22.1611 34.9217 22.1132 34.8738 22.0845Z" fill="black"/>
</svg>
