<svg width="50" height="50" viewBox="0 0 50 50" fill="none" xmlns="http://www.w3.org/2000/svg">
<rect x="0.5" y="0.5" width="49" height="49" rx="3.5" stroke="#EAEAEA"/>
<path fill-rule="evenodd" clip-rule="evenodd" d="M19.7304 13.5086L23.6474 13.5067C26.4031 13.506 29.1685 13.5019 31.9248 13.5116C32.101 13.5192 32.5972 13.5298 32.7402 13.6063C33.0502 13.7728 33.0198 14.6793 32.875 14.9315C32.7931 15.0735 32.4835 15.1418 32.3369 15.1561C31.7536 15.2128 31.1528 15.1948 30.5664 15.1942L27.5156 15.1913C27.0773 15.191 26.5998 15.1716 26.166 15.2118C25.8796 15.2385 25.6785 15.6818 25.7304 15.953C25.7659 16.1383 25.8926 16.2937 26.0674 16.3651C26.2691 16.4482 26.6303 16.4586 26.8574 16.5252C27.002 16.5676 27.2101 16.6072 27.3603 16.6395C28.7909 16.9467 30.1234 17.4647 31.3369 18.2967C32.7348 19.2552 33.9662 20.5649 34.5898 22.162C34.7979 22.687 34.9766 23.3322 35.2187 23.8153C35.4545 24.2649 35.788 24.6947 36.0224 25.1405C36.501 26.051 37.0038 27.1918 37.1426 28.2137C37.6515 31.9628 36.425 35.6276 32.3535 36.3944C31.547 36.5161 30.5442 36.491 29.7197 36.4911L26.3066 36.4891L21.3603 36.492C18.4295 36.4947 15.5932 36.7698 13.8115 33.8836C12.6896 32.0661 12.5498 29.806 12.959 27.7518C13.2479 26.3015 14.0621 24.9806 14.8369 23.7528C15.116 23.3039 15.2652 22.2385 15.5947 21.7528C16.9255 19.0543 19.6396 17.2842 22.5302 16.658C22.9719 16.5624 23.6378 16.4945 24.0351 16.3163C24.4427 16.1334 24.3392 15.3503 23.8593 15.2323C23.4109 15.153 22.8411 15.1869 22.3838 15.1873L19.376 15.1922C18.8086 15.1931 17.9398 15.219 17.4004 15.1385L17.0937 14.9149C17.0223 14.5514 16.941 13.9588 17.1992 13.6659C17.3349 13.512 17.4863 13.5269 17.6777 13.5164C18.2684 13.4846 19.1267 13.5089 19.7304 13.5086ZM23.4209 26.6151C22.0036 25.7696 19.9267 25.1675 18.2636 25.4071C17.1595 25.5127 16.6076 25.7119 15.5527 26.0409C15.5885 28.7715 15.5387 31.511 15.5722 34.2371L34.1162 34.2401C34.2492 34.2371 34.3076 34.2574 34.4111 34.1981C34.4634 33.7606 34.4293 33.2602 34.4365 32.8143C34.4729 30.5642 34.3825 28.279 34.4482 26.0321C33.8758 25.9074 33.3477 25.6671 32.749 25.5448C30.5639 25.0984 28.3666 25.5372 26.4648 26.6746C25.9741 26.9681 25.4724 27.4408 24.9795 27.6961C24.4507 27.3458 23.965 26.9396 23.4209 26.6151Z" fill="black"/>
<path d="M29.286 28.0587C29.5284 28.0472 30.4498 27.989 30.5009 28.239C30.6435 28.9363 30.7075 30.9466 30.5342 31.5709C30.4605 31.68 30.3167 31.7103 30.1886 31.7544C29.7949 31.8254 29.2917 31.8484 28.9974 31.5372C28.8645 31.2218 28.8944 28.8066 28.9701 28.3237C28.9912 28.1893 29.1625 28.1155 29.286 28.0587Z" fill="black"/>
<path d="M19.79 28.057C20.1519 28.0429 20.723 27.9714 20.998 28.2482C21.1415 28.6641 21.1087 30.9905 21.0312 31.5424C21.0228 31.6016 20.799 31.7096 20.727 31.7466C20.4895 31.7864 19.518 31.8576 19.4772 31.5416C19.3435 30.5039 19.3298 29.2525 19.4921 28.2194C19.5022 28.155 19.7302 28.0785 19.79 28.057Z" fill="black"/>
</svg>
