<svg width="50" height="50" viewBox="0 0 50 50" fill="none" xmlns="http://www.w3.org/2000/svg">
<rect x="0.5" y="0.5" width="49" height="49" rx="3.5" stroke="#EAEAEA"/>
<path fill-rule="evenodd" clip-rule="evenodd" d="M22.4452 13.5143H27.9139C28.3718 13.5138 28.8998 13.4924 29.3514 13.5426C30.1176 13.6278 30.3534 14.6667 29.8182 15.1754C29.474 15.5025 28.964 15.4315 28.5194 15.4313C28.4994 15.9646 28.5062 16.6787 28.5135 17.2223C28.5256 18.104 28.4397 19.1749 28.6668 20.0084C28.8254 20.5904 29.263 21.1869 29.5975 21.6872L30.4539 22.9674L34.7362 29.4176C35.1148 29.9931 35.4971 30.5662 35.8836 31.1364C36.4509 31.9775 36.7628 32.253 36.8006 33.3063C36.8495 34.667 35.9752 35.9753 34.6639 36.3678C34.0436 36.5534 32.8472 36.4889 32.162 36.4889L29.2743 36.4879L16.8123 36.4889C15.7248 36.486 14.8941 36.3848 14.0916 35.57C13.314 34.7777 13.0154 33.632 13.3075 32.5612C13.4692 31.9525 14.1307 31.084 14.5008 30.5299L15.7782 28.6139L19.8485 22.5172C21.4373 20.1127 21.5001 20.4215 21.4959 17.5055C21.4918 16.8145 21.4933 16.1233 21.5008 15.4323C20.841 15.4324 20.0257 15.4964 19.908 14.611C19.8691 14.3385 19.9455 14.062 20.119 13.8483C20.3158 13.6064 20.5022 13.5543 20.7879 13.5241C21.2556 13.4764 21.9639 13.5143 22.4452 13.5143ZM26.6004 15.4352C25.5914 15.4202 24.4097 15.4047 23.4051 15.4323L23.4149 17.9049C23.4151 18.4389 23.4315 19.0788 23.369 19.5993C23.3165 20.0243 23.2167 20.4422 23.0721 20.8454C22.7313 21.7899 21.9087 22.9122 21.3319 23.777L19.242 26.9088C18.9515 27.3432 18.2752 28.25 18.1825 28.7106C17.9511 29.8643 18.9541 30.8922 20.0936 30.8415C21.4393 30.7815 22.4489 30.1994 23.5184 29.5114C24.778 28.7036 26.6952 27.3754 28.035 26.7819C28.3896 26.6276 28.7526 26.4924 29.1219 26.3776C29.2323 26.3444 30.0804 26.1388 30.0643 26.0387C29.9873 25.588 29.5091 24.9937 29.2518 24.6081L27.9969 22.7291C27.5824 22.1093 27.2148 21.6226 26.9452 20.9147C26.5092 19.7696 26.5966 18.6133 26.5887 17.4157C26.585 16.7726 26.5828 16.0791 26.6004 15.4352Z" fill="#FFB1EE"/>
</svg>
